<svg fill="none" height="512" viewBox="0 0 24 24" width="512" xmlns="http://www.w3.org/2000/svg"><g clip-rule="evenodd" fill="rgb(0,0,0)" fill-rule="evenodd"><path d="m7.99412 16.0059c-.76232-.7623-1.99829-.7623-2.76062 0-.76232.7623-.76232 1.9983 0 2.7606.76233.7623 1.9983.7623 2.76062 0s.76232-1.9983 0-2.7606zm-1.69996 1.0606c.17654-.1765.46276-.1765.6393 0 .17653.1766.17653.4628 0 .6393-.17654.1766-.46276.1766-.6393 0-.17653-.1765-.17653-.4627 0-.6393z"/><path d="m19.3766 1.29731c.6295-.877382 1.8957-.980806 2.6592-.21722l.8842.88413c.7636.76359.6601 2.02974-.2172 2.65929l-1.3433.96383.3794.38903c.2892.29654.2832.77137-.0133 1.06058-.2965.2892-.7714.28326-1.0606-.01328l-.4584-.47003-3.4428 3.44278c.9139 2.08778.4552 4.64468-1.2902 6.39008-.3481.3481-.7284.6451-1.1309.8902-.2127 1.4315-.8768 2.8174-1.9857 3.9263-2.68938 2.6894-7.02064 2.7665-9.67375.1134-2.6531131-2.6531-2.57606-6.9844.11333-9.6738 1.10889-1.1089 2.49479-1.773 3.92634-1.98565.24512-.4025.5421-.78284.89019-1.13093 1.74544-1.74543 4.30229-2.20415 6.39009-1.29023l3.4421-3.44207-.3724-.36225c-.2969-.28882-.3034-.76365-.0146-1.06056s.7636-.30346 1.0605-.01464l.2933.28524zm.1175 2.40915.7995.79949 1.5347-1.10117c.1253-.08994.1401-.27082.031-.3799l-.8841-.88413c-.1091-.10908-.29-.09431-.3799.03103zm-6.6658 4.70424c-1.3938-.36718-2.99637.01783-4.15453 1.17598-.33912.33913-.61184.71642-.81884 1.11522-.11796.2273-.34372.3787-.59877.4016-1.23018.1102-2.44203.6429-3.39892 1.5998-2.13009 2.1301-2.15452 5.5112-.11333 7.5524 2.04118 2.0412 5.42235 2.0168 7.55239-.1133.9569-.9569 1.4897-2.1688 1.5999-3.3989.0228-.2551.1742-.4809.4015-.5988.3988-.207.7761-.4797 1.1152-.8189 1.1582-1.1581 1.5432-2.7606 1.176-4.1545l-2.6382 2.6383c-.6834.6834-1.7914.6834-2.4749 0l-.2857-.2858c-.68342-.6834-.68342-1.7914 0-2.4749z"/></g></svg>